<svg viewBox="0 0 1411.39 483.29" xmlns="http://www.w3.org/2000/svg" data-name="Layer 1" id="Layer_1">
  <defs>
    <style>
      .cls-1 {
        fill: #282827;
      }
    </style>
  </defs>
  <g data-name="Artwork 52" id="Artwork_52">
    <g>
      <g>
        <path d="M775.91,0h0c1.36,0,2.47,1.11,2.47,2.47v180c0,1.36-1.11,2.47-2.47,2.47h0c-1.36,0-2.47-1.11-2.47-2.47V2.47c0-1.36,1.11-2.47,2.47-2.47Z" class="cls-1"></path>
        <path d="M32.13,91.51v80.47H0v-74.04c0-35.95,18.09-53.8,54.04-53.8,16.2,0,28.58,3.56,37.63,10.71,9.05-6.9,21.43-10.24,37.61-10.24,35.95,0,53.81,17.86,53.57,53.81v74.04h-16.42c-10.48-.72-15.72-5.71-15.72-15.72v-64.77c-.72-13.11-7.85-19.53-21.91-19.53s-21.19,6.42-21.43,19.53v80.01h-31.92v-80.47c-.72-13.09-7.85-19.53-21.9-19.53s-21.18,6.42-21.43,19.53h0Z" class="cls-1"></path>
        <path d="M238.19,78.89h-31.67c3.81-23.33,20.24-34.75,49.31-34.75,34.75,0,52.38,11.43,53.09,34.75v42.85c0,34.77-20.96,50.24-55,52.62-30.23,2.39-51.19-11.66-51.19-39.51.72-30.24,22.62-38.34,54.53-41.44,13.56-1.66,20.48-5.71,20.48-12.61-.72-7.15-7.4-10.71-20.48-10.71-11.22,0-17.41,2.85-19.07,8.8h0ZM278.18,120.33v-11.66c-8.14,3.34-16.57,5.89-25.2,7.61-12.61,2.38-19.05,8.33-19.05,17.62.72,10.01,5.95,14.79,15.95,14.79,17.58,0,28.29-10.5,28.29-28.36Z" class="cls-1"></path>
        <path d="M329.26,106.99c.94-40.68,22.61-60.95,64.75-60.95h4.52v32.86h-10.71c-17.62,0-26.43,9.28-26.43,27.62v65.48h-32.13v-65Z" class="cls-1"></path>
        <path d="M452.1,78.89v59.52c0,5.24,3.09,8.1,9.28,8.1h9.81v24.04c-11.08,1-22.23.91-33.29-.23-11.91-1.23-17.62-8.63-17.38-22.62V10.08h16.43c8.32,0,15.24,7.62,15.24,15.95v20h19v16.96c0,11.86-13.35,15.89-19.1,15.89h0Z" class="cls-1"></path>
        <path d="M545.41,174.84c-38.09-1.2-57.14-23.26-57.14-66.19s19.29-64.28,57.62-64.51c39.99,0,58.81,24.52,56.43,73.81h-81.43c1.23,19.28,9.53,29.05,25,29.05,7.4,0,14.29-3.09,20.48-9.05,2.74-3.01,6.66-4.66,10.71-4.52h23.33c-6.89,26.67-24.04,41.42-55,41.42h0ZM521.37,95.32h47.38c-1.91-16.67-9.76-25.24-23.34-25.24s-21.66,8.57-24.04,25.24Z" class="cls-1"></path>
        <path d="M665.4,131.99l-18.76,31.8c-2.49,5.31-7.94,8.59-13.8,8.32h-29.06l41.92-63.45-39.28-62.63h36.42l21.67,38.09,16.51-29.75c2.49-5.31,7.94-8.61,13.81-8.33h29.1l-41,62.63,41.45,63.32h-36.59l-22.38-39.99Z" class="cls-1"></path>
        <path d="M725.25,53.04c0-.99.2-1.96.58-2.87.36-.86.89-1.64,1.55-2.29.67-.64,1.45-1.16,2.31-1.52,1.79-.74,3.8-.74,5.58,0,.85.36,1.63.88,2.29,1.52.67.65,1.21,1.43,1.57,2.29.78,1.84.78,3.91,0,5.75-.37.85-.9,1.63-1.57,2.28-.67.64-1.44,1.16-2.29,1.52-1.79.74-3.8.74-5.58,0-.85-.36-1.64-.88-2.31-1.52-1.38-1.36-2.15-3.22-2.13-5.15h0ZM726.48,53.04c0,.85.15,1.69.47,2.47.28.73.7,1.39,1.23,1.96.54.53,1.18.95,1.89,1.23,1.49.64,3.17.64,4.66,0,1.44-.62,2.58-1.79,3.16-3.25.64-1.58.64-3.35,0-4.93-.28-.73-.7-1.39-1.23-1.96-.54-.55-1.18-1-1.89-1.31-1.49-.64-3.17-.64-4.66,0-.72.31-1.36.75-1.89,1.31-.53.57-.95,1.23-1.23,1.96-.32.8-.48,1.66-.46,2.53h-.05ZM729.72,48.82h3.18c1.97,0,2.96.83,2.96,2.47.05.63-.18,1.25-.64,1.69-.46.37-1.01.59-1.6.63l2.47,3.7h-1.37l-2.29-3.7h-1.38v3.7h-1.23l-.09-8.48h0ZM730.95,52.59h2.16c.25,0,.49-.06.72-.16.21-.09.38-.25.51-.43.14-.23.21-.52.2-.79,0-.46-.23-.88-.63-1.1-.18-.09-.39-.15-.6-.17h-2.34v2.65h0Z" class="cls-1"></path>
        <path d="M880.36,11.03h-4.76l-55.33,151.92h-22.45v2.27h46.26v-2.27h-21.54l15.2-41.72h51.93l15.19,41.72h-14.51v2.27h61.68v-2.27h-16.32l-55.33-151.92h-.01ZM838.64,118.96l17-46.95c9.97,0,18.37,6.13,21.54,14.74l11.8,32.2h-50.34,0Z" class="cls-1"></path>
        <path d="M1055.42,162.95c-.22,0-1.81-.22-2.72-.22-11.34-1.37-20.4-11.12-20.4-22.91v-20.86h69.4v-.46c-.23-20.86-14.05-38.33-32.88-43.99-4.31-1.13-8.84-1.82-13.38-1.82-25.62,0-46.26,20.64-46.26,46.27,0,5.76,1.11,11.24,3.05,16.32-1.29,13.54-11.44,22.45-21.86,22.45-9.07,0-14.29-7.71-14.29-23.35V59.55h23.13v-2.27h-23.13V10.79h-7.71v7.71c0,21.32-17.91,38.77-30.83,38.77v2.27h15.42v74.83c0,17,13.83,30.83,30.83,30.83,15.44,0,27.87-11.11,30.33-25.63,7.58,15.07,23.13,25.47,41.1,25.63h.22c20.18,0,37.18-12.93,43.54-30.83h-2.49c-6.13,16.56-22.23,28.58-41.04,28.58h-.04ZM1032.29,98.1c0-12.7,10.43-23.13,23.13-23.13s23.13,10.43,23.13,23.13v2.95c0,8.62-6.81,15.64-15.42,15.64h-30.83v-18.59Z" class="cls-1"></path>
        <path d="M1186.01,57.28c6.35,0,11.56-5.21,11.56-11.79s-5.21-11.34-11.56-11.34-11.56,4.99-11.56,11.34,5.21,11.79,11.56,11.79Z" class="cls-1"></path>
        <path d="M1197.57,162.95v-90.24h-38.55v2.27c5.89,0,11.34,2.27,15.42,5.89v82.1h-35.37V10.79h-38.55v2.49c5.89,0,11.34,2.27,15.42,5.89v143.76h-15.42v2.27h112.46v-2.27h-15.42.01Z" class="cls-1"></path>
        <path d="M1275.52,74.52c-4.31-1.13-8.84-1.82-13.38-1.82-25.62,0-46.26,20.64-46.26,46.27s20.64,46.03,46.03,46.26h.22c20.18,0,37.18-12.93,43.53-30.83h-2.49c-6.13,16.56-22.23,28.58-41.04,28.58-.22,0-1.81-.22-2.72-.22-11.34-1.37-20.4-11.12-20.4-22.91v-20.86h69.38v-.46c-.23-20.86-14.05-38.33-32.88-43.99h0ZM1285.27,101.05c0,8.62-6.81,15.64-15.42,15.64h-30.83v-18.59c0-12.7,10.43-23.13,23.13-23.13s23.13,10.43,23.13,23.13v2.95Z" class="cls-1"></path>
        <path d="M1395.75,72.71c-15.64,0-33.11,8.62-46.03,21.77v-21.77h-38.55v2.27c5.89,0,11.34,2.27,15.42,5.89v82.1h-15.42v2.27h53.96v-2.27h-15.42v-62.36c15.42-16.56,38.55-23.35,38.55-8.62,0,6.35,5.21,11.56,11.56,11.56s11.56-5.21,11.56-11.56c0-7.71-.22-19.28-15.64-19.28h.01Z" class="cls-1"></path>
      </g>
      <g>
        <path d="M47.81,445.06h242.4v34.03H3.7V208.96h44.11v236.1Z" class="cls-1"></path>
        <path d="M340.2,208.96v149.14c0,16.53,3.43,30.81,10.29,42.85,6.86,12.05,16.52,21.43,28.99,28.15,12.46,6.72,26.11,11.63,40.96,14.7,14.84,3.08,31.23,4.62,49.15,4.62s34.72-1.54,49.57-4.62c14.84-3.08,28.49-7.98,40.96-14.7,12.46-6.72,22.12-16.1,28.99-28.15,6.86-12.04,10.29-26.32,10.29-42.85v-149.14h43.69v149.14c0,40.33-15.48,71.28-46.42,92.84-30.95,21.57-73.31,32.35-127.08,32.35s-97.46-10.71-127.71-32.14c-30.25-21.43-45.37-52.44-45.37-93.05v-149.14h43.69Z" class="cls-1"></path>
        <path d="M837.19,340.46l-166.36-131.49h59.23l135.27,106.71,134.85-106.71h59.65l-165.1,130.23,177.28,139.89h-59.23l-145.78-115.11-146.62,115.11h-59.23l176.02-138.63Z" class="cls-1"></path>
        <path d="M1097.65,208.96h305.84v34.03h-261.73v83.18h244.5v34.03h-244.5v84.86h265.93v34.03h-310.04V208.96Z" class="cls-1"></path>
      </g>
    </g>
  </g>
</svg>